<?xml version="1.0" encoding="utf-8"?>
<!-- Generator: Adobe Illustrator 17.1.0, SVG Export Plug-In . SVG Version: 6.00 Build 0)  -->
<!DOCTYPE svg PUBLIC "-//W3C//DTD SVG 1.1//EN" "http://www.w3.org/Graphics/SVG/1.1/DTD/svg11.dtd">
<svg version="1.1" id="Layer_1" xmlns="http://www.w3.org/2000/svg" xmlns:xlink="http://www.w3.org/1999/xlink" x="0px" y="0px"
	 viewBox="0 0 144 106" enable-background="new 0 0 144 106" xml:space="preserve">
<polygon fill="#74E5D1" points="111.1,93.4 16,89.8 16,18.4 129.1,13.4 "/>
<g>
	<g>
		<path fill="#57597B" stroke="#57597B" stroke-width="0.5" stroke-miterlimit="10" d="M113.1,91.9l-0.2,0l-95.4-3.6V16.4l113.7-5
			l-0.1,0.3L113.1,91.9z M18,87.8l94.7,3.6L130.5,12L18,16.9V87.8z"/>
	</g>
</g>
<g>
	<polygon fill="#57597B" points="77.7,60 104.3,33.6 103.2,32.6 77.7,58 51.9,32.5 25.1,58.8 26.2,59.9 51.9,34.6 	"/>
	<g>
		<polygon fill="none" points="71.6,54.6 52.8,73.1 53.6,73.1 72,55 		"/>
		<polygon fill="#57597B" points="104.5,76 104.5,74.5 54.1,74.6 54.8,74 52.7,74 50.6,76.1 		"/>
		<polygon fill="#57597B" points="53.6,73.1 55.7,73.1 73,56.1 72,55 		"/>
		<polygon fill="#FFFFFF" points="77.7,57.1 103.8,31.1 103.2,30.5 77.7,56 51.9,30.5 25.6,56.4 26.2,57 51.9,31.7 		"/>
		<polygon fill="#FFFFFF" points="103.6,73.8 103.6,73 55.7,73.1 54.8,74 		"/>
		<polygon fill="#FFFFFF" points="52.8,73.1 71.6,54.6 71,54 50.7,74 52.7,74 53.6,73.1 		"/>
		<polygon fill="#FFFFFF" points="55.7,73.1 53.6,73.1 52.7,74 54.8,74 		"/>
		<g>
			<polygon fill="#57597B" points="78.5,50.7 77.4,49.7 74.7,52.4 75.7,53.4 			"/>
			<polygon fill="#FFFFFF" points="78,48.3 77.4,47.7 73.7,51.4 74.3,52 			"/>
		</g>
	</g>
</g>
</svg>
